<svg width="509" height="509" viewBox="0 0 509 509" fill="none" xmlns="http://www.w3.org/2000/svg">
<mask id="path-1-inside-1_10_100" fill="white">
<rect x="76.7197" y="3.57913" width="295.281" height="233.476" rx="8" transform="rotate(5.00951 76.7197 3.57913)"/>
</mask>
<rect x="76.7197" y="3.57913" width="295.281" height="233.476" rx="8" transform="rotate(5.00951 76.7197 3.57913)" stroke="#B2CEDE" stroke-width="32" mask="url(#path-1-inside-1_10_100)"/>
<rect x="72.3497" y="240.077" width="265.444" height="64.4869" rx="5.5" transform="rotate(5.00951 72.3497 240.077)" stroke="#B2CEDE" stroke-width="5"/>
<rect x="92.6349" y="264.457" width="74.5101" height="19.4563" rx="8" transform="rotate(5.00951 92.6349 264.457)" fill="#B2CEDE"/>
<rect x="92.6349" y="264.457" width="74.5101" height="19.4563" rx="8" transform="rotate(5.00951 92.6349 264.457)" stroke="#B2CEDE"/>
<ellipse cx="260.855" cy="288.968" rx="9.65872" ry="9.72817" transform="rotate(5.00951 260.855 288.968)" fill="#B2CEDE"/>
<ellipse cx="293.844" cy="291.859" rx="9.65872" ry="9.72817" transform="rotate(5.00951 293.844 291.859)" fill="#B2CEDE"/>
<path d="M395.659 462.016C394.702 472.938 390.957 482.528 385.73 489.206C380.496 495.892 373.871 499.559 367.107 498.966C360.343 498.374 354.457 493.61 350.466 486.115C346.48 478.629 344.461 468.535 345.419 457.612C346.376 446.69 350.121 437.1 355.348 430.423C360.582 423.736 367.207 420.069 373.971 420.662C380.734 421.255 386.621 426.018 390.612 433.514C394.598 440.999 396.617 451.094 395.659 462.016Z" stroke="#B2CEDE" stroke-width="2"/>
<path d="M348.897 439.841L372.111 441.875M395.326 443.91L372.111 441.875M374.058 419.666L372.111 441.875" stroke="#B2CEDE" stroke-width="2"/>
<path d="M373.937 421.05C371.963 377.924 385.464 368.349 412.994 354.72L469.149 330.346C489.512 320.029 486.651 310.487 475.296 291.823C466.228 276.856 457.168 273.828 441.378 267.924C421.18 259.054 412.732 261.837 404.791 274.482C397.947 290.854 392.585 294.068 382.11 296.21C363.383 300.052 352.837 297.809 334 291.993" stroke="#B2CEDE" stroke-width="2"/>
<rect x="1.09508" y="0.903604" width="243.535" height="92.533" rx="6" transform="matrix(0.995809 -0.0914561 0.0992706 0.995061 8.92703 374.271)" stroke="#B2CEDE" stroke-width="2"/>
<rect width="82.7647" height="13.9019" rx="6.95095" transform="matrix(0.995809 -0.0914561 0.0992706 0.995061 93.3876 441.801)" fill="#B2CEDE"/>
<rect width="13.7941" height="13.9019" rx="2" transform="matrix(0.995809 -0.0914561 0.0992706 0.995061 178.553 433.98)" fill="#B2CEDE"/>
<rect width="13.7941" height="13.9019" rx="2" transform="matrix(0.995809 -0.0914561 0.0992706 0.995061 195.036 432.466)" fill="#B2CEDE"/>
<rect width="13.7941" height="13.9019" rx="2" transform="matrix(0.995809 -0.0914561 0.0992706 0.995061 76.9042 443.315)" fill="#B2CEDE"/>
<path d="M185.337 418.613C185.227 417.514 186.03 416.541 187.13 416.44L196.883 415.544C197.983 415.443 198.964 416.252 199.073 417.351L200.056 427.204C200.166 428.303 199.363 429.276 198.263 429.377L188.51 430.273C187.41 430.374 186.43 429.565 186.32 428.466L185.337 418.613Z" fill="#B2CEDE"/>
<rect width="13.7941" height="13.9019" rx="2" transform="matrix(0.995809 -0.0914561 0.0992706 0.995061 43.937 446.343)" fill="#B2CEDE"/>
<rect width="13.7941" height="13.9019" rx="2" transform="matrix(0.995809 -0.0914561 0.0992706 0.995061 60.4204 444.829)" fill="#B2CEDE"/>
<rect width="13.7941" height="13.9019" rx="2" transform="matrix(0.995809 -0.0914561 0.0992706 0.995061 211.52 430.952)" fill="#B2CEDE"/>
<rect width="13.7941" height="13.9019" rx="2" transform="matrix(0.995809 -0.0914561 0.0992706 0.995061 168.655 418.137)" fill="#B2CEDE"/>
<rect width="13.7941" height="13.9019" rx="2" transform="matrix(0.995809 -0.0914561 0.0992706 0.995061 135.688 421.164)" fill="#B2CEDE"/>
<rect width="13.7941" height="13.9019" rx="2" transform="matrix(0.995809 -0.0914561 0.0992706 0.995061 152.171 419.65)" fill="#B2CEDE"/>
<rect width="13.7941" height="13.9019" rx="2" transform="matrix(0.995809 -0.0914561 0.0992706 0.995061 201.622 415.109)" fill="#B2CEDE"/>
<rect width="13.7941" height="13.9019" rx="2" transform="matrix(0.995809 -0.0914561 0.0992706 0.995061 119.204 422.678)" fill="#B2CEDE"/>
<rect width="13.7941" height="13.9019" rx="2" transform="matrix(0.995809 -0.0914561 0.0992706 0.995061 86.237 425.706)" fill="#B2CEDE"/>
<rect width="13.7941" height="13.9019" rx="2" transform="matrix(0.995809 -0.0914561 0.0992706 0.995061 102.721 424.192)" fill="#B2CEDE"/>
<rect width="13.7941" height="13.9019" rx="2" transform="matrix(0.995809 -0.0914561 0.0992706 0.995061 69.7535 427.22)" fill="#B2CEDE"/>
<rect width="13.7941" height="13.9019" rx="2" transform="matrix(0.995809 -0.0914561 0.0992706 0.995061 175.241 400.78)" fill="#B2CEDE"/>
<rect width="19.3118" height="13.9019" rx="2" transform="matrix(0.995809 -0.0914561 0.0992706 0.995061 31.2918 430.752)" fill="#B2CEDE"/>
<rect width="13.7941" height="13.9019" rx="2" transform="matrix(0.995809 -0.0914561 0.0992706 0.995061 53.2701 428.734)" fill="#B2CEDE"/>
<rect width="13.7941" height="13.9019" rx="2" transform="matrix(0.995809 -0.0914561 0.0992706 0.995061 59.8556 411.377)" fill="#B2CEDE"/>
<rect width="13.7941" height="13.9019" rx="2" transform="matrix(0.995809 -0.0914561 0.0992706 0.995061 43.3722 412.891)" fill="#B2CEDE"/>
<rect width="19.3118" height="13.9019" rx="2" transform="matrix(0.995809 -0.0914561 0.0992706 0.995061 218.106 413.595)" fill="#B2CEDE"/>
<rect width="13.7941" height="13.9019" rx="2" transform="matrix(0.995809 -0.0914561 0.0992706 0.995061 232.368 362.029)" fill="#B2CEDE"/>
<rect width="16.5529" height="13.9019" rx="2" transform="matrix(0.995809 -0.0914561 0.0992706 0.995061 224.692 396.238)" fill="#B2CEDE"/>
<rect width="16.5529" height="13.9019" rx="2" transform="matrix(0.995809 -0.0914561 0.0992706 0.995061 24.1415 414.657)" fill="#B2CEDE"/>
<rect width="13.7941" height="13.9019" rx="2" transform="matrix(0.995809 -0.0914561 0.0992706 0.995061 158.757 402.294)" fill="#B2CEDE"/>
<rect width="13.7941" height="13.9019" rx="2" transform="matrix(0.995809 -0.0914561 0.0992706 0.995061 125.79 405.321)" fill="#B2CEDE"/>
<rect width="13.7941" height="13.9019" rx="2" transform="matrix(0.995809 -0.0914561 0.0992706 0.995061 92.8228 408.349)" fill="#B2CEDE"/>
<rect width="13.7941" height="13.9019" rx="2" transform="matrix(0.995809 -0.0914561 0.0992706 0.995061 109.307 406.835)" fill="#B2CEDE"/>
<rect width="13.7941" height="13.9019" rx="2" transform="matrix(0.995809 -0.0914561 0.0992706 0.995061 76.3394 409.863)" fill="#B2CEDE"/>
<rect width="13.7941" height="13.9019" rx="2" transform="matrix(0.995809 -0.0914561 0.0992706 0.995061 208.208 397.752)" fill="#B2CEDE"/>
<rect width="13.7941" height="13.9019" rx="2" transform="matrix(0.995809 -0.0914561 0.0992706 0.995061 142.273 403.808)" fill="#B2CEDE"/>
<rect width="13.7941" height="13.9019" rx="2" transform="matrix(0.995809 -0.0914561 0.0992706 0.995061 191.724 399.266)" fill="#B2CEDE"/>
<rect width="13.7941" height="13.9019" rx="2" transform="matrix(0.995809 -0.0914561 0.0992706 0.995061 18.082 381.709)" fill="#B2CEDE"/>
<rect width="13.7941" height="13.9019" rx="2" transform="matrix(0.995809 -0.0914561 0.0992706 0.995061 36.2216 396.796)" fill="#B2CEDE"/>
<rect width="13.7941" height="13.9019" rx="2" transform="matrix(0.995809 -0.0914561 0.0992706 0.995061 52.7053 395.282)" fill="#B2CEDE"/>
<rect width="13.7941" height="13.9019" rx="2" transform="matrix(0.995809 -0.0914561 0.0992706 0.995061 69.1887 393.768)" fill="#B2CEDE"/>
<rect width="13.7941" height="13.9019" rx="2" transform="matrix(0.995809 -0.0914561 0.0992706 0.995061 85.6721 392.254)" fill="#B2CEDE"/>
<rect width="13.7941" height="13.9019" rx="2" transform="matrix(0.995809 -0.0914561 0.0992706 0.995061 102.156 390.74)" fill="#B2CEDE"/>
<rect width="13.7941" height="13.9019" rx="2" transform="matrix(0.995809 -0.0914561 0.0992706 0.995061 118.639 389.226)" fill="#B2CEDE"/>
<rect width="13.7941" height="13.9019" rx="2" transform="matrix(0.995809 -0.0914561 0.0992706 0.995061 135.123 387.712)" fill="#B2CEDE"/>
<rect width="13.7941" height="13.9019" rx="2" transform="matrix(0.995809 -0.0914561 0.0992706 0.995061 151.607 386.198)" fill="#B2CEDE"/>
<rect width="13.7941" height="13.9019" rx="2" transform="matrix(0.995809 -0.0914561 0.0992706 0.995061 168.09 384.685)" fill="#B2CEDE"/>
<rect width="13.7941" height="13.9019" rx="2" transform="matrix(0.995809 -0.0914561 0.0992706 0.995061 184.574 383.171)" fill="#B2CEDE"/>
<rect width="13.7941" height="13.9019" rx="2" transform="matrix(0.995809 -0.0914561 0.0992706 0.995061 201.057 381.657)" fill="#B2CEDE"/>
<rect width="13.7941" height="13.9019" rx="2" transform="matrix(0.995809 -0.0914561 0.0992706 0.995061 217.541 380.143)" fill="#B2CEDE"/>
<rect width="13.7941" height="13.9019" rx="2" transform="matrix(0.995809 -0.0914561 0.0992706 0.995061 19.7382 398.309)" fill="#B2CEDE"/>
<rect width="13.7941" height="13.9019" rx="2" transform="matrix(0.995809 -0.0914561 0.0992706 0.995061 234.024 378.629)" fill="#B2CEDE"/>
<rect width="13.7941" height="13.9019" rx="2" transform="matrix(0.995809 -0.0914561 0.0992706 0.995061 34.5654 380.196)" fill="#B2CEDE"/>
<rect width="13.7941" height="13.9019" rx="2" transform="matrix(0.995809 -0.0914561 0.0992706 0.995061 51.0493 378.682)" fill="#B2CEDE"/>
<rect width="13.7941" height="13.9019" rx="2" transform="matrix(0.995809 -0.0914561 0.0992706 0.995061 67.5327 377.168)" fill="#B2CEDE"/>
<rect width="13.7941" height="13.9019" rx="2" transform="matrix(0.995809 -0.0914561 0.0992706 0.995061 84.0161 375.654)" fill="#B2CEDE"/>
<rect width="13.7941" height="13.9019" rx="2" transform="matrix(0.995809 -0.0914561 0.0992706 0.995061 100.5 374.14)" fill="#B2CEDE"/>
<rect width="13.7941" height="13.9019" rx="2" transform="matrix(0.995809 -0.0914561 0.0992706 0.995061 116.983 372.626)" fill="#B2CEDE"/>
<rect width="13.7941" height="13.9019" rx="2" transform="matrix(0.995809 -0.0914561 0.0992706 0.995061 133.467 371.112)" fill="#B2CEDE"/>
<rect width="13.7941" height="13.9019" rx="2" transform="matrix(0.995809 -0.0914561 0.0992706 0.995061 149.95 369.598)" fill="#B2CEDE"/>
<rect width="13.7941" height="13.9019" rx="2" transform="matrix(0.995809 -0.0914561 0.0992706 0.995061 166.434 368.085)" fill="#B2CEDE"/>
<rect width="13.7941" height="13.9019" rx="2" transform="matrix(0.995809 -0.0914561 0.0992706 0.995061 182.918 366.571)" fill="#B2CEDE"/>
<rect width="13.7941" height="13.9019" rx="2" transform="matrix(0.995809 -0.0914561 0.0992706 0.995061 199.401 365.057)" fill="#B2CEDE"/>
<rect width="13.7941" height="13.9019" rx="2" transform="matrix(0.995809 -0.0914561 0.0992706 0.995061 215.885 363.543)" fill="#B2CEDE"/>
<path d="M236.506 125.999C260.637 128.115 258.242 155.432 234.112 153.317C209.986 151.202 202.73 123.039 176.185 120.712C154.475 118.809 152.08 146.126 173.791 148.029C200.336 150.356 212.381 123.885 236.512 126L236.506 125.999Z" stroke="url(#paint0_radial_10_100)" stroke-width="10" stroke-linecap="round" stroke-linejoin="round"/>
<path d="M114.416 136.433L115.055 129.141L142.442 117.091L141.792 124.504L121.806 133.162L121.763 133.648L139.939 145.651L139.289 153.065L114.416 136.433ZM257.696 172.445L282.472 119.629L289.46 120.242L264.685 173.058L257.696 172.445ZM295.991 159.33L315.978 150.672L316.02 150.186L297.845 138.183L298.495 130.77L323.367 147.401L322.728 154.693L295.341 166.744L295.991 159.33Z" fill="#B2CEDE"/>
<defs>
<radialGradient id="paint0_radial_10_100" cx="0" cy="0" r="1" gradientUnits="userSpaceOnUse" gradientTransform="translate(206.056 137.094) rotate(95.0095) scale(13.711 47.5325)">
<stop offset="0.484375" stop-color="#FCFEFF"/>
<stop offset="1" stop-color="#B2CEDE"/>
</radialGradient>
</defs>
</svg>
